Coordinates
version=1
nRows=32
nColumns=22
inDegrees=yes

Units are S.I. units (second, meters, Newtons, ...)
If the header above contains a line with 'inDegrees', this indicates whether rotational values are in degrees (yes) or radians (no).

endheader
time	pelvis_tilt	pelvis_list	pelvis_rotation	pelvis_tx	pelvis_ty	pelvis_tz	hip_flexion_r	hip_adduction_r	hip_rotation_r	knee_angle_r	ankle_angle_r	subtalar_angle_r	hip_flexion_l	hip_adduction_l	hip_rotation_l	knee_angle_l	ankle_angle_l	subtalar_angle_l	lumbar_extension	lumbar_bending	lumbar_rotation
      0.01000000	      0.08788185	     -2.45039764	     -4.79483689	     -1.05000880	      0.93546520	     -0.06684410	     -3.55122166	      2.22358116	      3.70805560	     -5.08616419	      4.33273756	      0.33937786	     -3.37685402	     -4.43291098	    -11.57505210	     -7.32945366	      8.12568764	      4.97901593	     -3.12176079	     -1.47722661	     -1.06428491
      0.02000000	      0.08443410	     -2.45245133	     -4.79451410	     -1.05000432	      0.93545636	     -0.06684359	     -3.54990668	      2.22492137	      3.70695440	     -5.08190922	      4.33221123	      0.33985724	     -3.37449807	     -4.43560775	    -11.57486302	     -7.32773698	      8.12616352	      4.97872265	     -3.12625556	     -1.48259755	     -1.06524880
      0.03000000	      0.07998313	     -2.45442532	     -4.78954885	     -1.04999208	      0.93544630	     -0.06684889	     -3.54978848	      2.22707181	      3.70574939	     -5.07472088	      4.33137106	      0.34131387	     -3.37037913	     -4.43812314	    -11.57383380	     -7.32575235	      8.12690957	      4.97811168	     -3.12988682	     -1.48951559	     -1.06660860
      0.04000000	      0.06711614	     -2.45200155	     -4.75777851	     -1.04993508	      0.93542099	     -0.06690906	     -3.56677115	      2.22319714	      3.69339436	     -5.02406157	      4.32098972	      0.35750754	     -3.34704328	     -4.43778468	    -11.54260341	     -7.34067217	      8.13225613	      4.97200364	     -3.11461934	     -1.49723405	     -1.09039731
      0.05000000	      0.06275349	     -2.45404460	     -4.75392488	     -1.04992115	      0.93540859	     -0.06692333	     -3.56464105	      2.22465213	      3.69245156	     -5.02264323	      4.31969822	      0.35902133	     -3.34332949	     -4.43998869	    -11.54051814	     -7.33831651	      8.13313978	      4.97126896	     -3.12215555	     -1.50308325	     -1.09303373
      0.06000000	      0.05204454	     -2.45149482	     -4.69955090	     -1.04989586	      0.93538547	     -0.06702469	     -3.56956436	      2.22226550	      3.64248583	     -4.99858796	      4.30284594	      0.39270990	     -3.31271320	     -4.43980292	    -11.46682783	     -7.35957338	      8.14687589	      4.95252831	     -3.12228458	     -1.50943223	     -1.15526693
      0.07000000	      0.04914788	     -2.45361446	     -4.68838197	     -1.04984145	      0.93537025	     -0.06705568	     -3.57178490	      2.22347567	      3.64216453	     -4.99977891	      4.30321012	      0.39386400	     -3.31085397	     -4.44171990	    -11.46546097	     -7.35979132	      8.14684500	      4.95159695	     -3.12377936	     -1.51543697	     -1.15225855
      0.08000000	      0.04812358	     -2.45042743	     -4.65271716	     -1.04980007	      0.93535695	     -0.06712991	     -3.58608277	      2.21880429	      3.61708330	     -4.97921895	      4.30974839	      0.40477629	     -3.28920857	     -4.44051672	    -11.41771376	     -7.39313921	      8.14713507	      4.94118890	     -3.13418300	     -1.52706515	     -1.15980734
      0.09000000	      0.04449076	     -2.45160778	     -4.63515623	     -1.04972848	      0.93534040	     -0.06719484	     -3.58766144	      2.21693232	      3.61685401	     -4.98083196	      4.30954012	      0.40584226	     -3.28713918	     -4.43963432	    -11.41661882	     -7.39085165	      8.14836848	      4.93970116	     -3.13735289	     -1.52817888	     -1.16170171
      0.10000000	      0.04781728	     -2.44493438	     -4.55059752	     -1.04964969	      0.93532837	     -0.06736360	     -3.61469241	      2.20813012	      3.53445261	     -4.95192416	      4.31339203	      0.42778079	     -3.26491831	     -4.43342290	    -11.31024571	     -7.42070353	      8.16373281	      4.90165271	     -3.15217640	     -1.53757291	     -1.25534455
      0.11000000	      0.04563218	     -2.44640206	     -4.53264361	     -1.04953876	      0.93531268	     -0.06744256	     -3.61963221	      2.20570113	      3.53625590	     -4.95668975	      4.31343742	      0.42827434	     -3.26453248	     -4.43193829	    -11.30765172	     -7.42319842	      8.16327485	      4.90029712	     -3.15222422	     -1.53697631	     -1.24948588
      0.12000000	      0.06046894	     -2.44104990	     -4.45459402	     -1.04944449	      0.93531454	     -0.06761706	     -3.65661531	      2.19632490	      3.47801494	     -4.93658237	      4.33039645	      0.44127767	     -3.25345611	     -4.42510256	    -11.20216747	     -7.46098140	      8.17648347	      4.85926375	     -3.18246667	     -1.54633297	     -1.30788685
      0.13000000	      0.06689143	     -2.44044747	     -4.42148622	     -1.04932104	      0.93530826	     -0.06774004	     -3.67311679	      2.19022254	      3.46937320	     -4.93935268	      4.33495310	      0.44504336	     -3.25085280	     -4.42059556	    -11.16288045	     -7.48439972	      8.17768391	      4.84580610	     -3.19566436	     -1.54695756	     -1.30043487
      0.14000000	      0.07772063	     -2.43563938	     -4.37147775	     -1.04919032	      0.93530358	     -0.06789287	     -3.69970609	      2.17903420	      3.46143834	     -4.93493698	      4.35000258	      0.45235911	     -3.24775371	     -4.41170144	    -11.10317339	     -7.51164399	      8.19197674	      4.82625241	     -3.21597414	     -1.55248356	     -1.32225566
      0.15000000	      0.07548416	     -2.43642904	     -4.34802243	     -1.04901681	      0.93528360	     -0.06803035	     -3.70734240	      2.17221258	      3.46486564	     -4.94202729	      4.35040010	      0.45301553	     -3.25016355	     -4.40532048	    -11.10134073	     -7.51371794	      8.19336338	      4.82465166	     -3.21254436	     -1.54462804	     -1.31796422
      0.16000000	      0.09834753	     -2.42094840	     -4.26715473	     -1.04885665	      0.93528504	     -0.06824946	     -3.75907786	      2.14762692	      3.42497304	     -4.91738868	      4.38406936	      0.48387412	     -3.25746484	     -4.38184352	    -10.98567412	     -7.53858093	      8.23254671	      4.77085287	     -3.24684767	     -1.56155308	     -1.37648279
      0.17000000	      0.10028805	     -2.41763147	     -4.23886297	     -1.04870732	      0.93526719	     -0.06840417	     -3.77050254	      2.13515126	      3.42797158	     -4.92231941	      4.38641442	      0.49055552	     -3.25378510	     -4.37201307	    -10.96063533	     -7.55667531	      8.23191352	      4.76084462	     -3.25871857	     -1.56024474	     -1.35198324
      0.18000000	      0.10167640	     -2.40530813	     -4.20865712	     -1.04854453	      0.93524298	     -0.06856557	     -3.78590713	      2.11310352	      3.43251983	     -4.91922611	      4.39927752	      0.50332815	     -3.24996616	     -4.35141466	    -10.92290988	     -7.57555389	      8.24456490	      4.74528979	     -3.26731480	     -1.57007736	     -1.33457750
      0.19000000	      0.09686257	     -2.40457973	     -4.19030953	     -1.04835678	      0.93521027	     -0.06871156	     -3.79197058	      2.10347544	      3.43586653	     -4.92517608	      4.40054147	      0.50483424	     -3.25183301	     -4.34301458	    -10.92129891	     -7.57777245	      8.24637234	      4.74352054	     -3.26442618	     -1.56222639	     -1.32765689
      0.20000000	      0.08441898	     -2.35948193	     -4.15598171	     -1.04820085	      0.93515465	     -0.06888577	     -3.78729488	      2.04640958	      3.42068660	     -4.92856762	      4.45390435	      0.55383088	     -3.23430053	     -4.28587756	    -10.85502402	     -7.58584213	      8.27824473	      4.68865091	     -3.25872557	     -1.61385291	     -1.30902425
      0.21000000	      0.07250958	     -2.35246749	     -4.13708575	     -1.04805124	      0.93510916	     -0.06903291	     -3.78470181	      2.03120093	      3.41080256	     -4.93002494	      4.46302730	      0.56494387	     -3.22020295	     -4.27218251	    -10.83799062	     -7.59839459	      8.27738990	      4.67664207	     -3.26041850	     -1.61845999	     -1.26487067
      0.22000000	      0.02941148	     -2.31230682	     -4.12361697	     -1.04789654	      0.93501328	     -0.06918694	     -3.72941458	      1.98139741	      3.39489310	     -4.96752401	      4.51039586	      0.61363895	     -3.17709607	     -4.22206112	    -10.81823397	     -7.59832570	      8.28678176	      4.62740042	     -3.21893523	     -1.65935560	     -1.23599687
      0.23000000	      0.01370238	     -2.30811709	     -4.10575010	     -1.04773973	      0.93496160	     -0.06934045	     -3.72565941	      1.96840754	      3.38447954	     -4.96373330	      4.51846201	      0.61970984	     -3.16117445	     -4.21173669	    -10.80715942	     -7.60877960	      8.28856911	      4.62159036	     -3.21701292	     -1.66167815	     -1.19254117
      0.24000000	     -0.03405386	     -2.27299650	     -4.09882791	     -1.04757915	      0.93486119	     -0.06949380	     -3.66541601	      1.92397444	      3.37048592	     -5.00113533	      4.56274324	      0.64573082	     -3.11300848	     -4.16688863	    -10.79517264	     -7.61301389	      8.30529547	      4.59411441	     -3.17059611	     -1.69627256	     -1.16025675
      0.25000000	     -0.04900128	     -2.27276290	     -4.08365016	     -1.04741110	      0.93481260	     -0.06964480	     -3.66341022	      1.91555773	      3.36275396	     -4.99690680	      4.57376580	      0.64837196	     -3.09847889	     -4.16070526	    -10.78603370	     -7.62555845	      8.30570286	      4.58981591	     -3.16810802	     -1.69588309	     -1.12311341
      0.26000000	     -0.06846794	     -2.26388312	     -4.07631616	     -1.04724072	      0.93475417	     -0.06979706	     -3.65021538	      1.89687903	      3.35816202	     -5.00341070	      4.59530626	      0.65114831	     -3.07871476	     -4.14410737	    -10.77207810	     -7.64132040	      8.32144140	      4.58356746	     -3.15762138	     -1.70396191	     -1.08471841
      0.27000000	     -0.11836567	     -2.24602888	     -4.08023934	     -1.04708168	      0.93465004	     -0.06993350	     -3.58528223	      1.87206982	      3.36431383	     -5.04644591	      4.66053811	      0.65120468	     -3.02154614	     -4.12011413	    -10.77737360	     -7.66642895	      8.35718249	      4.55720130	     -3.10916354	     -1.72054483	     -1.06693332
      0.28000000	     -0.12613973	     -2.24966330	     -4.07439858	     -1.04689102	      0.93461753	     -0.07009363	     -3.58807621	      1.86580373	      3.36516805	     -5.04865938	      4.66135460	      0.65055685	     -3.02100919	     -4.11436041	    -10.77492145	     -7.67300315	      8.35732701	      4.55673594	     -3.11017338	     -1.71266050	     -1.05818893
      0.29000000	     -0.13669440	     -2.25295102	     -4.07409689	     -1.04672518	      0.93458081	     -0.07023384	     -3.58793675	      1.86072130	      3.36641395	     -5.04522318	      4.67559628	      0.64568478	     -3.00582303	     -4.11122663	    -10.75619614	     -7.70400369	      8.37056048	      4.55346265	     -3.11436602	     -1.71219747	     -1.01811706
      0.30000000	     -0.14529210	     -2.25688134	     -4.07033066	     -1.04651651	      0.93455241	     -0.07040505	     -3.59070418	      1.85430461	      3.36822035	     -5.04829306	      4.67805715	      0.64425324	     -3.00661850	     -4.10444020	    -10.75590699	     -7.70906898	      8.37435629	      4.55293608	     -3.11453583	     -1.70385761	     -1.01402605
      0.31000000	     -0.15816051	     -2.26158019	     -4.06973845	     -1.04630844	      0.93451354	     -0.07057044	     -3.59398315	      1.84909010	      3.36750655	     -5.03989651	      4.70652734	      0.63035853	     -2.99370453	     -4.10071879	    -10.74799308	     -7.73708711	      8.41655637	      4.54614839	     -3.11381304	     -1.69845361	     -0.98229801
      0.32000000	     -0.16833076	     -2.26625813	     -4.06545469	     -1.04607366	      0.93449073	     -0.07076504	     -3.59741498	      1.84209950	      3.36765179	     -5.04209267	      4.70778261	      0.62856239	     -2.99619978	     -4.09281958	    -10.74958840	     -7.73976620	      8.41991494	      4.54542996	     -3.11554268	     -1.68787174	     -0.98071039
